<svg xmlns="http://www.w3.org/2000/svg" xmlns:xlink="http://www.w3.org/1999/xlink" viewBox="0 0 300 101"><defs><linearGradient id="linear-gradient" x1="0.22" y1="85.77" x2="185.4" y2="37.29" gradientUnits="userSpaceOnUse"><stop offset="0" stop-color="#06c"/><stop offset="1" stop-color="#0078dc"/></linearGradient><linearGradient id="linear-gradient-2" x1="1.38" y1="90.19" x2="186.55" y2="41.71" xlink:href="#linear-gradient"/><linearGradient id="linear-gradient-3" x1="2.4" y1="94.09" x2="187.57" y2="45.61" xlink:href="#linear-gradient"/><linearGradient id="linear-gradient-4" x1="3.49" y1="98.26" x2="188.66" y2="49.77" xlink:href="#linear-gradient"/><linearGradient id="linear-gradient-5" x1="4.82" y1="103.34" x2="190" y2="54.86" xlink:href="#linear-gradient"/><linearGradient id="linear-gradient-6" x1="6.07" y1="108.1" x2="191.24" y2="59.62" xlink:href="#linear-gradient"/><linearGradient id="linear-gradient-7" x1="7.01" y1="111.7" x2="192.19" y2="63.22" xlink:href="#linear-gradient"/><linearGradient id="linear-gradient-8" x1="7.91" y1="115.12" x2="193.08" y2="66.64" xlink:href="#linear-gradient"/><linearGradient id="linear-gradient-9" x1="8.97" y1="119.18" x2="194.14" y2="70.7" xlink:href="#linear-gradient"/><linearGradient id="linear-gradient-10" x1="10.5" y1="125.02" x2="195.67" y2="76.53" xlink:href="#linear-gradient"/><linearGradient id="linear-gradient-11" x1="-11.89" y1="62.05" x2="191.04" y2="8.92" xlink:href="#linear-gradient"/><linearGradient id="linear-gradient-12" x1="-11.3" y1="64.3" x2="191.62" y2="11.17" xlink:href="#linear-gradient"/><linearGradient id="linear-gradient-13" x1="-10.73" y1="66.49" x2="192.2" y2="13.37" xlink:href="#linear-gradient"/><linearGradient id="linear-gradient-14" x1="-10.05" y1="63.9" x2="188.76" y2="11.85" xlink:href="#linear-gradient"/></defs><title>BVC-logo-300X101-lft</title><g id="Layer_2" data-name="Layer 2"><g id="Layer_1-2" data-name="Layer 1"><path d="M84.17,88.62l2,3.91,2.09-3.91H90L87,94v2.91h-1.6V94l-3-5.39Z" style="fill:#f93"/><path d="M93.62,97A3.83,3.83,0,0,1,92,96.65a3.91,3.91,0,0,1-1.28-1,4.48,4.48,0,0,1-.83-1.36,4.27,4.27,0,0,1-.29-1.55,4.13,4.13,0,0,1,.31-1.59,4.49,4.49,0,0,1,.86-1.35A4.05,4.05,0,0,1,92,88.91a3.83,3.83,0,0,1,1.63-.34,3.7,3.7,0,0,1,1.65.36,4,4,0,0,1,1.27,1,4.66,4.66,0,0,1,.82,1.36,4.23,4.23,0,0,1,.29,1.55,4.18,4.18,0,0,1-.31,1.58,4.4,4.4,0,0,1-.85,1.35,4,4,0,0,1-1.29.93A3.86,3.86,0,0,1,93.62,97Zm-2.41-4.22a3.31,3.31,0,0,0,.16,1,2.81,2.81,0,0,0,.47.9,2.26,2.26,0,0,0,.76.62,2.22,2.22,0,0,0,1,.23,2.2,2.2,0,0,0,1-.24,2.25,2.25,0,0,0,.76-.64,3,3,0,0,0,.46-.9,3.33,3.33,0,0,0,.16-1,3.22,3.22,0,0,0-.17-1,3,3,0,0,0-.48-.89,2.26,2.26,0,0,0-.76-.62,2.39,2.39,0,0,0-2.06,0,2.3,2.3,0,0,0-.75.64,2.91,2.91,0,0,0-.46.89A3.24,3.24,0,0,0,91.21,92.78Z" style="fill:#f93"/><path d="M102.11,97a3.9,3.9,0,0,1-1.69-.34,2.93,2.93,0,0,1-1.12-.92,4,4,0,0,1-.63-1.33,5.94,5.94,0,0,1-.2-1.55V88.62h1.62v4.24a4.93,4.93,0,0,0,.1,1,2.7,2.7,0,0,0,.33.87,1.7,1.7,0,0,0,.62.61,2.2,2.2,0,0,0,1.94,0,1.69,1.69,0,0,0,.62-.61,2.9,2.9,0,0,0,.34-.87,4.74,4.74,0,0,0,.1-1V88.62h1.61v4.24a6.08,6.08,0,0,1-.2,1.6,3.78,3.78,0,0,1-.64,1.32,3,3,0,0,1-1.13.89A3.88,3.88,0,0,1,102.11,97Z" style="fill:#f93"/><path d="M107,96.94V88.62h3.68a2.39,2.39,0,0,1,1.06.23,2.69,2.69,0,0,1,.84.63,2.93,2.93,0,0,1,.55.89,2.76,2.76,0,0,1,.19,1,2.85,2.85,0,0,1-.18,1,2.49,2.49,0,0,1-.52.85,2.41,2.41,0,0,1-.8.56l1.9,3.13H112l-1.71-2.79h-1.62v2.79Zm1.62-4.21h2a.86.86,0,0,0,.54-.18,1.28,1.28,0,0,0,.37-.48,1.62,1.62,0,0,0,.14-.68,1.44,1.44,0,0,0-.16-.7,1.4,1.4,0,0,0-.42-.47.94.94,0,0,0-.55-.18h-2Z" style="fill:#f93"/><path d="M118.53,91.6v5.34h-1.62V88.62h1.29l4.3,5.48V88.63h1.62v8.31h-1.35Z" style="fill:#f93"/><path d="M126.37,88.62l2.06,3.07,2.05-3.07h1.76l-2.88,4.22,2.79,4.1h-1.76l-2-3-2,3H124.7l2.79-4.1-2.88-4.22Z" style="fill:#f93"/><path d="M138.95,90h-2.66v6.9h-1.6V90H132V88.62h6.93Z" style="fill:#f93"/><path d="M141.75,96.94V88.62h3a4.3,4.3,0,0,1,2.27.56,3.52,3.52,0,0,1,1.37,1.5,4.72,4.72,0,0,1,.46,2.09,4.58,4.58,0,0,1-.5,2.2,3.56,3.56,0,0,1-1.42,1.45,4.36,4.36,0,0,1-2.17.52Zm5.49-4.17a3.28,3.28,0,0,0-.29-1.42,2.25,2.25,0,0,0-.84-1,2.49,2.49,0,0,0-1.34-.34h-1.41v5.48h1.41a2.43,2.43,0,0,0,1.35-.36,2.27,2.27,0,0,0,.84-1A3.36,3.36,0,0,0,147.24,92.77Z" style="fill:#f93"/><path d="M149.79,96.94V88.62h1.62v8.32Z" style="fill:#f93"/><path d="M156.24,97a3.65,3.65,0,0,1-1.53-.33,4,4,0,0,1-1.27-.91,4.22,4.22,0,0,1-.85-1.35,4.54,4.54,0,0,1-.31-1.68,4.27,4.27,0,0,1,.31-1.61,4.13,4.13,0,0,1,.86-1.33,4,4,0,0,1,1.29-.9,3.91,3.91,0,0,1,1.6-.33,3.85,3.85,0,0,1,2,.5,3.23,3.23,0,0,1,1.26,1.32l-1.21.89a2.24,2.24,0,0,0-.88-.95,2.43,2.43,0,0,0-1.24-.33,2.08,2.08,0,0,0-1,.22,2.37,2.37,0,0,0-.75.61,2.81,2.81,0,0,0-.49.89,3.29,3.29,0,0,0-.17,1.07,3.2,3.2,0,0,0,.18,1.1,2.67,2.67,0,0,0,.51.88,2.48,2.48,0,0,0,.78.59,2.2,2.2,0,0,0,1,.22,2.44,2.44,0,0,0,1.21-.33,3.82,3.82,0,0,0,1.08-1v1.59A3.23,3.23,0,0,1,156.24,97Zm2.32-3.15h-1.68V92.66h3v4.28h-1.34Z" style="fill:#f93"/><path d="M160.93,96.94V88.62h1.62v8.32Z" style="fill:#f93"/><path d="M170.15,90h-2.66v6.9h-1.6V90h-2.66V88.62h6.93Z" style="fill:#f93"/><path d="M172.32,88.62H174L177,96.94h-1.67l-.69-2.07h-3.05l-.7,2.07h-1.66Zm2,5.11-1.14-3.43L172,93.73Z" style="fill:#f93"/><path d="M177.58,96.94V88.62h1.62v6.9h4.24v1.42Z" style="fill:#f93"/><path d="M186.18,96.94V88.62h3.53a2.36,2.36,0,0,1,1.05.23,2.71,2.71,0,0,1,.84.63,3,3,0,0,1,.56.89,2.65,2.65,0,0,1,.2,1,2.86,2.86,0,0,1-.33,1.34,2.82,2.82,0,0,1-.9,1,2.32,2.32,0,0,1-1.36.4h-2v2.79Zm1.62-4.21h1.88a.89.89,0,0,0,.53-.17,1.11,1.11,0,0,0,.38-.47,1.71,1.71,0,0,0,.14-.71,1.6,1.6,0,0,0-.16-.74,1.14,1.14,0,0,0-.41-.46,1.05,1.05,0,0,0-.55-.15H187.8Z" style="fill:#f93"/><path d="M193.13,96.94V88.62h3.68a2.39,2.39,0,0,1,1.06.23,2.69,2.69,0,0,1,.84.63,2.93,2.93,0,0,1,.55.89,2.76,2.76,0,0,1,.19,1,2.85,2.85,0,0,1-.18,1,2.49,2.49,0,0,1-.52.85,2.41,2.41,0,0,1-.8.56l1.9,3.13h-1.78l-1.71-2.79h-1.62v2.79Zm1.62-4.21h2a.86.86,0,0,0,.54-.18,1.28,1.28,0,0,0,.37-.48,1.62,1.62,0,0,0,.14-.68,1.44,1.44,0,0,0-.16-.7,1.4,1.4,0,0,0-.42-.47.94.94,0,0,0-.55-.18h-2Z" style="fill:#f93"/><path d="M204.08,97a3.83,3.83,0,0,1-1.66-.35,3.91,3.91,0,0,1-1.28-1,4.48,4.48,0,0,1-.83-1.36,4.27,4.27,0,0,1-.29-1.55,4.13,4.13,0,0,1,.31-1.59,4.49,4.49,0,0,1,.86-1.35,4.05,4.05,0,0,1,1.29-.94,3.83,3.83,0,0,1,1.63-.34,3.7,3.7,0,0,1,1.65.36,4,4,0,0,1,1.27,1,4.66,4.66,0,0,1,.82,1.36,4.23,4.23,0,0,1,.29,1.55,4.18,4.18,0,0,1-.31,1.58,4.4,4.4,0,0,1-.85,1.35,4,4,0,0,1-1.29.93A3.86,3.86,0,0,1,204.08,97Zm-2.41-4.22a3.31,3.31,0,0,0,.16,1,2.81,2.81,0,0,0,.47.9,2.26,2.26,0,0,0,.76.62,2.22,2.22,0,0,0,1,.23,2.2,2.2,0,0,0,1-.24,2.25,2.25,0,0,0,.76-.64,3,3,0,0,0,.46-.9,3.33,3.33,0,0,0,.16-1,3.22,3.22,0,0,0-.17-1,3,3,0,0,0-.48-.89,2.26,2.26,0,0,0-.76-.62,2.39,2.39,0,0,0-2.06,0,2.3,2.3,0,0,0-.75.64,2.91,2.91,0,0,0-.46.89A3.24,3.24,0,0,0,201.66,92.78Z" style="fill:#f93"/><path d="M208.53,92.71a4.21,4.21,0,0,1,.28-1.49,4.34,4.34,0,0,1,.8-1.34,3.91,3.91,0,0,1,1.29-1,4,4,0,0,1,1.73-.36,3.77,3.77,0,0,1,2,.5,3.22,3.22,0,0,1,1.25,1.31l-1.24.86a2,2,0,0,0-.55-.74,2,2,0,0,0-.73-.39,2.73,2.73,0,0,0-.76-.11,2.19,2.19,0,0,0-1.06.25,2.36,2.36,0,0,0-.75.64,2.75,2.75,0,0,0-.45.89,3.4,3.4,0,0,0-.15,1,3.19,3.19,0,0,0,.18,1.06,2.85,2.85,0,0,0,.5.9,2.36,2.36,0,0,0,.77.62,2.14,2.14,0,0,0,1,.23,2.52,2.52,0,0,0,.79-.13,2.26,2.26,0,0,0,.74-.41,1.87,1.87,0,0,0,.53-.73l1.32.76a2.47,2.47,0,0,1-.8,1.05,4,4,0,0,1-1.25.66,4.47,4.47,0,0,1-1.37.22,3.59,3.59,0,0,1-1.63-.37,4,4,0,0,1-1.27-1,4.7,4.7,0,0,1-.83-1.38A4.24,4.24,0,0,1,208.53,92.71Z" style="fill:#f93"/><path d="M222.49,95.52v1.42h-5.78V88.62h5.67V90h-4.06v2h3.5v1.31h-3.5v2.17Z" style="fill:#f93"/><path d="M228.37,90.8a2,2,0,0,0-.3-.22,3.1,3.1,0,0,0-.53-.27,5.62,5.62,0,0,0-.67-.23,2.76,2.76,0,0,0-.74-.1,1.66,1.66,0,0,0-1,.25.8.8,0,0,0-.33.69.7.7,0,0,0,.21.54,1.69,1.69,0,0,0,.63.34c.28.09.63.2,1.05.3a7.35,7.35,0,0,1,1.42.48,2.28,2.28,0,0,1,.93.74,2.09,2.09,0,0,1,.32,1.22,2.41,2.41,0,0,1-.25,1.14,2,2,0,0,1-.68.76,3.11,3.11,0,0,1-1,.43,5,5,0,0,1-1.17.13,6,6,0,0,1-1.24-.13,6.46,6.46,0,0,1-1.19-.37,5.43,5.43,0,0,1-1.05-.58l.71-1.4a2.29,2.29,0,0,0,.38.28,5,5,0,0,0,.66.34,5.43,5.43,0,0,0,.84.29,3.67,3.67,0,0,0,.92.12,1.86,1.86,0,0,0,1-.22.71.71,0,0,0,.34-.63.7.7,0,0,0-.27-.58,2.49,2.49,0,0,0-.75-.37l-1.14-.34a7,7,0,0,1-1.31-.5,1.93,1.93,0,0,1-.78-.69,2,2,0,0,1-.26-1.05,2.44,2.44,0,0,1,.4-1.43,2.53,2.53,0,0,1,1.1-.88,3.84,3.84,0,0,1,1.54-.3,4.66,4.66,0,0,1,1.11.13,5.39,5.39,0,0,1,1,.34,5.56,5.56,0,0,1,.82.46Z" style="fill:#f93"/><path d="M235.2,90.8a2,2,0,0,0-.3-.22,3.1,3.1,0,0,0-.53-.27,5.62,5.62,0,0,0-.67-.23A2.76,2.76,0,0,0,233,90a1.66,1.66,0,0,0-1,.25.8.8,0,0,0-.33.69.7.7,0,0,0,.21.54,1.69,1.69,0,0,0,.63.34c.28.09.63.2,1.05.3a7.35,7.35,0,0,1,1.42.48,2.28,2.28,0,0,1,.93.74,2.09,2.09,0,0,1,.32,1.22,2.41,2.41,0,0,1-.25,1.14,2,2,0,0,1-.68.76,3.11,3.11,0,0,1-1,.43,5,5,0,0,1-1.17.13,6,6,0,0,1-1.24-.13,6.46,6.46,0,0,1-1.19-.37,5.43,5.43,0,0,1-1.05-.58l.71-1.4a2.29,2.29,0,0,0,.38.28,5,5,0,0,0,.66.34,5.43,5.43,0,0,0,.84.29,3.67,3.67,0,0,0,.92.12,1.86,1.86,0,0,0,1-.22.71.71,0,0,0,.34-.63.7.7,0,0,0-.27-.58,2.49,2.49,0,0,0-.75-.37l-1.14-.34a7,7,0,0,1-1.31-.5,1.93,1.93,0,0,1-.78-.69,2,2,0,0,1-.26-1.05,2.44,2.44,0,0,1,.4-1.43,2.53,2.53,0,0,1,1.1-.88,3.84,3.84,0,0,1,1.54-.3,4.66,4.66,0,0,1,1.11.13,5.39,5.39,0,0,1,1,.34,5.56,5.56,0,0,1,.82.46Z" style="fill:#f93"/><path d="M78.47,74a5,5,0,0,1-1,3.23,6.18,6.18,0,0,1-2.78,1.92,11.17,11.17,0,0,1-3.85.64h-11V57.24H72.36a4.56,4.56,0,0,1,2.75.84,5.51,5.51,0,0,1,1.78,2.18A6.49,6.49,0,0,1,77.51,63a6,6,0,0,1-.83,3,5.2,5.2,0,0,1-2.42,2.18,5.84,5.84,0,0,1,3.07,2A6,6,0,0,1,78.47,74ZM65,61.69v4.67h5.12a2.28,2.28,0,0,0,1.06-.25,2,2,0,0,0,.81-.78A2.51,2.51,0,0,0,72.33,64a2.69,2.69,0,0,0-.27-1.27,2,2,0,0,0-.72-.78,1.92,1.92,0,0,0-1-.27ZM73.16,73a2.78,2.78,0,0,0-.29-1.29,2.48,2.48,0,0,0-.75-.89,1.82,1.82,0,0,0-1.1-.33H65v4.93h5.79A2.25,2.25,0,0,0,72,75.07,2.39,2.39,0,0,0,73.16,73Z" style="fill:url(#linear-gradient)"/><path d="M81.51,79.81V57.24h5.21V79.81Z" style="fill:url(#linear-gradient-2)"/><path d="M90.64,79.81V57.24h10.17a6.68,6.68,0,0,1,2.94.65,7.47,7.47,0,0,1,2.34,1.75,8.4,8.4,0,0,1,1.54,2.46,7.29,7.29,0,0,1,.56,2.77,7.88,7.88,0,0,1-.45,2.65,7.4,7.4,0,0,1-1.27,2.26,6.84,6.84,0,0,1-2,1.64l5,8.39H103.7l-4.32-7.28H95.85v7.28ZM95.85,68h4.77a1.75,1.75,0,0,0,1.13-.4,2.94,2.94,0,0,0,.81-1.1,3.89,3.89,0,0,0,.32-1.62,3.36,3.36,0,0,0-.37-1.61,3,3,0,0,0-.91-1.06,2,2,0,0,0-1.14-.38H95.85Z" style="fill:url(#linear-gradient-3)"/><path d="M111.9,79.81V57.24h8.42a11.82,11.82,0,0,1,6.21,1.51,9.75,9.75,0,0,1,3.77,4.07,12.58,12.58,0,0,1,1.27,5.67,12.21,12.21,0,0,1-1.4,6,9.83,9.83,0,0,1-3.93,3.94,12,12,0,0,1-5.93,1.4Zm14.37-11.32a8.21,8.21,0,0,0-.7-3.48,5.39,5.39,0,0,0-2-2.35,5.9,5.9,0,0,0-3.21-.84h-3.21V75.23h3.21a5.71,5.71,0,0,0,3.23-.87,5.6,5.6,0,0,0,2-2.42A8.26,8.26,0,0,0,126.27,68.49Z" style="fill:url(#linear-gradient-4)"/><path d="M136.65,57.24,142,73.71l5.25-16.47h5.5l-8.2,22.57h-5.12l-8.27-22.57Z" style="fill:url(#linear-gradient-5)"/><path d="M154.61,79.81V57.24h5.21V79.81Z" style="fill:url(#linear-gradient-6)"/><path d="M177.36,63.95a2.2,2.2,0,0,0-.66-.49,14.66,14.66,0,0,0-1.41-.71,13.65,13.65,0,0,0-1.85-.66,7.37,7.37,0,0,0-2-.28,3.85,3.85,0,0,0-2,.45,1.52,1.52,0,0,0-.72,1.38,1.43,1.43,0,0,0,.55,1.18,5,5,0,0,0,1.58.76q1,.33,2.54.76a18.82,18.82,0,0,1,3.7,1.35,6.13,6.13,0,0,1,2.4,2,5.86,5.86,0,0,1,.83,3.3,6.64,6.64,0,0,1-.69,3.16,5.72,5.72,0,0,1-1.86,2.08A8.08,8.08,0,0,1,175,79.45a13.37,13.37,0,0,1-3.1.36,17.62,17.62,0,0,1-3.34-.33,18.76,18.76,0,0,1-3.27-.94A15,15,0,0,1,162.45,77l2.26-4.48a4.1,4.1,0,0,0,.81.58,14.9,14.9,0,0,0,1.71.88,15.94,15.94,0,0,0,2.27.8,9.52,9.52,0,0,0,2.54.34,3.88,3.88,0,0,0,2.05-.43,1.35,1.35,0,0,0,.67-1.2,1.49,1.49,0,0,0-.71-1.31,7.56,7.56,0,0,0-1.91-.84l-2.77-.84a16,16,0,0,1-3.37-1.4,5.25,5.25,0,0,1-2-1.9,5.57,5.57,0,0,1-.64-2.81,6.75,6.75,0,0,1,1.11-3.94,7,7,0,0,1,3-2.43,10.1,10.1,0,0,1,4.11-.83,12.05,12.05,0,0,1,3,.38,17.4,17.4,0,0,1,2.73.94q1.27.56,2.27,1.13Z" style="fill:url(#linear-gradient-7)"/><path d="M183.29,79.81V57.24h5.21V79.81Z" style="fill:url(#linear-gradient-8)"/><path d="M202.43,79.81a10.46,10.46,0,0,1-4.53-1,10.91,10.91,0,0,1-3.48-2.57,11.67,11.67,0,0,1-2.24-3.63,11.48,11.48,0,0,1-.78-4.18,11,11,0,0,1,.83-4.23,11.76,11.76,0,0,1,2.32-3.59,10.78,10.78,0,0,1,8-3.4,10.39,10.39,0,0,1,4.5,1,10.82,10.82,0,0,1,3.48,2.59,11.88,11.88,0,0,1,2.24,3.65,11.32,11.32,0,0,1,.78,4.12,11.13,11.13,0,0,1-.81,4.23,11.41,11.41,0,0,1-5.84,6.09A10.53,10.53,0,0,1,202.43,79.81Zm-5.8-11.28A8.32,8.32,0,0,0,197,71a6.66,6.66,0,0,0,1.11,2.15,5.47,5.47,0,0,0,1.83,1.5,5.92,5.92,0,0,0,5.08,0,5.34,5.34,0,0,0,1.82-1.55,7,7,0,0,0,1.08-2.18,8.56,8.56,0,0,0,.36-2.46,8.17,8.17,0,0,0-.38-2.48,6.71,6.71,0,0,0-1.13-2.15,5.24,5.24,0,0,0-1.85-1.49,5.6,5.6,0,0,0-2.48-.53,5.25,5.25,0,0,0-4.37,2.08,6.6,6.6,0,0,0-1.1,2.16A8.54,8.54,0,0,0,196.64,68.52Z" style="fill:url(#linear-gradient-9)"/><path d="M221.57,66.9V79.81h-5.21V57.24h4.13L231,70.53V57.24h5.21V79.81h-4.26Z" style="fill:url(#linear-gradient-10)"/><circle cx="18.66" cy="54.05" r="3.2" style="fill:url(#linear-gradient-11)"/><circle cx="27.84" cy="54.05" r="3.2" style="fill:url(#linear-gradient-12)"/><circle cx="36.79" cy="54.05" r="3.2" style="fill:url(#linear-gradient-13)"/><path d="M53.46,57.25c-.08.65-.19,1.3-.32,1.94-.06.31-.14.63-.21.94s-.16.62-.25.92h0c-.07.23-.13.46-.21.68l-.22.68h0a26,26,0,0,1-16,16h0l-.68.22-.68.21h0l-.92.25-.94.21a26.06,26.06,0,0,1-10.41,0Q21.44,79,20.3,78.7q-.93-.28-1.82-.63l-.61-.25h0l-10,4.39S9.1,71.78,9.1,71.76A26.13,26.13,0,0,1,5,66.12c-.19-.35-.36-.7-.54-1.06h0c-.19-.39-.37-.8-.54-1.2H4l-.18-.46-.23-.62-.13-.36L3.26,62c-.1-.3-.19-.6-.28-.91H3c-.09-.31-.17-.62-.25-.92s-.15-.63-.21-.94a26.06,26.06,0,0,1,0-10.41q.24-1.18.59-2.32.21-.68.45-1.35h0q.24-.67.52-1.32t.52-1.12l.28-.55.23-.44a26.11,26.11,0,0,1,10.4-10.4L16,31l.55-.28q.56-.27,1.12-.52T19,29.72h0q.67-.24,1.35-.45,1.14-.35,2.32-.59,1-.2,2-.33v6.46A19.44,19.44,0,1,0,47,57.25Z" style="fill:url(#linear-gradient-14)"/><path d="M53.48,50.86H47a19.44,19.44,0,0,0-16-16V28.35q1,.12,2,.32l.94.21.92.24h0l.91.28.45.15.36.13.62.23.46.18h0c.4.17.81.35,1.2.54h0A26,26,0,0,1,51.67,44l.25.61q.35.9.63,1.82.35,1.14.59,2.32C53.28,49.46,53.39,50.16,53.48,50.86Z" style="fill:#f93"/><path d="M66.32,50.86H59.91a.65.65,0,0,0,0-.07c0-.13,0-.25,0-.37s0-.36-.06-.53-.07-.54-.11-.8q-.12-.8-.28-1.59L59.3,47l-.11-.46c-.07-.28-.14-.56-.21-.83s-.14-.52-.22-.77a32.17,32.17,0,0,0-4.42-9.29l-.4-.57-.48-.64-.29-.37q-.48-.61-1-1.19l-.51-.58q-1-1.14-2.19-2.19c-.54-.49-1.09-1-1.66-1.41l-.66-.51c-.38-.28-.76-.56-1.15-.83s-.79-.52-1.19-.77A32.27,32.27,0,0,0,37.7,23.3L37,23.09l-.8-.23q-.67-.18-1.34-.33l-.54-.11-.39-.08-1.19-.21-.8-.11L31.4,22l-.37,0V15.5h.16l.21,0,.38,0,1,.11.48.06,1,.15.48.08c.76.14,1.52.3,2.26.47l.92.23h0l1,.29.58.17h0a37.62,37.62,0,0,1,9,4.21q.7.44,1.37.91l.76.55.46.34.94.73.71.59h0l.35.3.45.39.25.22q1.2,1.09,2.31,2.28l.31.34.31.34.31.35c.28.32.55.65.82,1s.68.86,1,1.3c.21.28.41.56.61.85l.31.44.48.73.39.61A37.74,37.74,0,0,1,65,43.46v0q.24.85.44,1.72c.09.39.18.79.25,1.18s.1.51.15.76l.08.48c.05.32.1.64.15,1l.06.48c0,.32.08.65.11,1,0,.13,0,.25,0,.38l0,.21C66.31,50.7,66.32,50.78,66.32,50.86Z" style="fill:#ffae5c"/><path d="M79.14,50.86H72.73c0-.11,0-.22,0-.33l0-.57c0-.39-.07-.78-.12-1.17,0-.18,0-.35-.06-.53s0-.37-.07-.56-.1-.67-.15-1l0-.11-.1-.56c-.07-.37-.14-.74-.21-1.1l-.12-.55c-.08-.36-.16-.73-.25-1.09l-.14-.54a44,44,0,0,0-1.54-4.82c-.18-.49-.38-1-.58-1.45q-.85-2-1.9-3.94c-.17-.31-.34-.62-.52-.93v0l-.48-.81q-1-1.62-2.09-3.15c-.37-.51-.75-1-1.13-1.5l-.59-.74a45.33,45.33,0,0,0-3.71-4l-.7-.65-.49-.44-.4-.36-.83-.7-.84-.68,0,0c-1-.77-2-1.5-3-2.19l-.45-.3-.46-.29-.4-.25Q50,14.8,48.79,14.14l-.71-.36c-.57-.29-1.14-.56-1.72-.83h0l-1-.44h0q-.72-.3-1.45-.58l-.21-.08c-.47-.18-.95-.35-1.42-.51L41.22,11l-.53-.16-.53-.15-.54-.15-.54-.14-.54-.14L37.45,10l-.55-.12-1.1-.21-.56-.1-.11,0-1-.15-.56-.07-.51-.06-1.19-.12-.56,0-.27,0V2.68a51.36,51.36,0,0,1,48.1,48.17Z" style="fill:#ffc891"/><rect width="300" height="101" style="fill:none"/></g></g></svg>